<svg width="22" height="20" viewBox="0 0 22 20" fill="none" xmlns="http://www.w3.org/2000/svg">
<path d="M11 18.2202C11 18.2202 1.25 12.9702 1.25 6.78222C1.25027 5.4396 1.7838 4.15206 2.73327 3.20278C3.68274 2.2535 4.97038 1.72021 6.313 1.72021C8.43 1.72021 10.244 2.87421 11 4.72021C11.756 2.87421 13.57 1.72021 15.688 1.72021C16.3528 1.72021 17.0112 1.85118 17.6254 2.10563C18.2396 2.36008 18.7977 2.73304 19.2677 3.20319C19.7378 3.67335 20.1106 4.2315 20.365 4.84576C20.6193 5.46003 20.7501 6.11838 20.75 6.78321C20.75 12.9702 11 18.2202 11 18.2202Z" stroke="#9E9E9E" stroke-width="2" stroke-linecap="round" stroke-linejoin="round"/>
</svg>
