<svg width="17" height="20" viewBox="0 0 17 20" fill="none" xmlns="http://www.w3.org/2000/svg">
<path d="M1.80796 19.8604C1.30896 19.8604 0.882965 19.6834 0.529965 19.3304C0.358973 19.1649 0.223722 18.9661 0.132564 18.7463C0.0414068 18.5264 -0.003722 18.2903 -3.51511e-05 18.0524V6.66835C-3.51511e-05 6.16935 0.176965 5.74335 0.529965 5.39035C0.882965 5.03735 1.30896 4.86035 1.80796 4.86035H3.99996C3.99996 3.61135 4.43796 2.55035 5.31296 1.67435C6.18996 0.798352 7.25096 0.360352 8.49996 0.360352C9.74896 0.360352 10.81 0.798352 11.687 1.67435C12.562 2.54935 13 3.61135 13 4.86035H15.192C15.691 4.86035 16.117 5.03735 16.47 5.39035C16.823 5.74335 17 6.16935 17 6.66835V18.0524C17 18.5514 16.823 18.9774 16.47 19.3304C16.117 19.6834 15.691 19.8604 15.192 19.8604H1.80796ZM1.80796 18.3604H15.192C15.232 18.3596 15.2714 18.3507 15.3079 18.3342C15.3443 18.3177 15.377 18.2939 15.404 18.2644C15.4336 18.2374 15.4573 18.2047 15.4738 18.1683C15.4903 18.1318 15.4992 18.0924 15.5 18.0524V6.66835C15.4992 6.62834 15.4903 6.5889 15.4738 6.55245C15.4573 6.516 15.4336 6.48329 15.404 6.45635C15.377 6.42676 15.3443 6.40299 15.3079 6.38648C15.2714 6.36997 15.232 6.36108 15.192 6.36035H1.80796C1.76795 6.36108 1.72852 6.36997 1.69206 6.38648C1.65561 6.40299 1.62291 6.42676 1.59596 6.45635C1.56638 6.48329 1.5426 6.516 1.5261 6.55245C1.50959 6.5889 1.5007 6.62834 1.49996 6.66835V18.0524C1.49996 18.1294 1.53196 18.2004 1.59596 18.2644C1.62291 18.2939 1.65561 18.3177 1.69206 18.3342C1.72852 18.3507 1.76795 18.3596 1.80796 18.3604ZM8.49996 11.8604C9.74896 11.8604 10.81 11.4224 11.687 10.5474C12.562 9.67035 13 8.60835 13 7.36035H11.5C11.5 8.19335 11.208 8.90235 10.625 9.48535C10.3493 9.76863 10.0186 9.99241 9.65308 10.1429C9.28759 10.2934 8.89515 10.3674 8.49996 10.3604C8.10478 10.3674 7.71233 10.2934 7.34685 10.1429C6.98137 9.99241 6.65061 9.76863 6.37496 9.48535C6.09169 9.20971 5.8679 8.87894 5.71741 8.51346C5.56692 8.14798 5.49291 7.75554 5.49996 7.36035H3.99996C3.99996 8.60935 4.43796 9.67035 5.31296 10.5474C6.18996 11.4224 7.25096 11.8604 8.49996 11.8604ZM5.49996 4.86035H11.5C11.5 4.02735 11.208 3.31835 10.625 2.73535C10.3493 2.45208 10.0186 2.22829 9.65308 2.0778C9.28759 1.92731 8.89515 1.8533 8.49996 1.86035C7.66696 1.86035 6.95796 2.15235 6.37496 2.73535C6.09169 3.01099 5.8679 3.34176 5.71741 3.70724C5.56692 4.07272 5.49291 4.46516 5.49996 4.86035Z" fill="#81C784"/>
</svg>
