<svg width="463" height="78" viewBox="0 0 463 78" fill="none" xmlns="http://www.w3.org/2000/svg">
<path d="M16.3595 61.668C11.3393 62.4961 8.18714 59.9026 7.34338 54.7877L4.40584 36.9804C3.56208 31.8655 5.71423 28.397 10.7344 27.5689C15.7545 26.7407 18.9067 29.3343 19.7505 34.4491L20.3286 37.9538L15.4032 38.7663L14.7703 34.9301C14.411 32.7516 13.2206 32.0236 11.6577 32.2814C10.0948 32.5392 9.20137 33.6109 9.56075 35.7895L12.6155 54.3072C12.9749 56.4858 14.1574 57.1664 15.7203 56.9086C17.2832 56.6508 18.1844 55.6264 17.8251 53.4479L16.9891 48.3803L21.9146 47.5678L22.688 52.2565C23.5318 57.3713 21.3796 60.8399 16.3595 61.668Z" fill="#591F12"/>
<path d="M32.589 58.5777L27.7287 25.331L32.9531 24.5673L34.932 38.1034L40.5364 37.2841L38.5576 23.748L43.782 22.9842L48.6423 56.2308L43.4179 56.9946L41.2307 42.0336L35.6263 42.8529L37.8134 57.8139L32.589 58.5777Z" fill="#591F12"/>
<path d="M56.9028 55.0855L58.0932 21.0637L65.188 20.1616L74.8543 52.8031L69.6165 53.4691L67.8226 46.9714L67.8347 47.0667L61.8826 47.8234L61.7597 54.468L56.9028 55.0855ZM61.9265 43.2211L66.6405 42.6218L62.2126 26.4431L62.1173 26.4552L61.9265 43.2211Z" fill="#591F12"/>
<path d="M83.0506 51.8432L79.4243 18.4395L87.2026 17.595C92.6426 17.0045 95.2554 19.2797 95.8149 24.4335L96.0377 26.4854C96.4107 29.9212 95.5514 32.2355 93.3168 33.4437L93.3271 33.5392C96.0398 34.0655 97.1681 36.4536 97.5774 40.2235L98.2146 46.093C98.3907 47.7155 98.568 48.9033 99.2276 50.087L93.883 50.6672C93.5034 49.8393 93.2555 49.3352 92.9603 46.6151L92.2972 40.507C91.9604 37.4052 90.945 36.5016 88.559 36.7606L86.7456 36.9574L88.2998 51.2733L83.0506 51.8432ZM86.2276 32.1855L88.1364 31.9783C90.0929 31.7659 91.1926 30.7774 90.9025 28.1051L90.6228 25.5282C90.3637 23.1423 89.4385 22.1805 87.5775 22.3825L85.1915 22.6416L86.2276 32.1855Z" fill="#591F12"/>
<path d="M107.873 49.2385L104.823 15.7772L110.081 15.2979L112.695 43.979L121.348 43.1903L121.783 47.9704L107.873 49.2385Z" fill="#591F12"/>
<path d="M129.757 47.328L127.161 13.8285L132.425 13.4205L135.021 46.92L129.757 47.328Z" fill="#591F12"/>
<path d="M144.682 46.2056L142.552 12.6731L156.923 11.7605L157.228 16.5509L148.126 17.1289L148.689 25.991L155.922 25.5317L156.226 30.322L148.993 30.7814L149.647 41.0806L158.749 40.5027L159.053 45.293L144.682 46.2056Z" fill="#591F12"/>
<path d="M180.564 44.2188L179.308 10.6422L184.584 10.4449L185.661 39.2247L194.342 38.9L194.522 43.6966L180.564 44.2188Z" fill="#591F12"/>
<path d="M210.149 43.7876C204.966 43.8921 202.073 40.8779 201.965 35.503L201.609 17.8425C201.5 12.4676 204.27 9.33917 209.453 9.23466C214.636 9.13015 217.529 12.1444 217.637 17.5193L217.993 35.1798C218.102 40.5547 215.332 43.6831 210.149 43.7876ZM210.053 38.9886C211.732 38.9547 212.77 38.0216 212.721 35.6221L212.352 17.2899C212.303 14.8903 211.229 13.9998 209.549 14.0337C207.87 14.0676 206.832 15.0007 206.881 17.4002L207.25 35.7324C207.299 38.132 208.373 39.0225 210.053 38.9886Z" fill="#591F12"/>
<path d="M228.717 43.2425C227.757 43.2467 227.037 43.2019 226.268 43.0613L226.247 38.2613C226.824 38.4028 227.4 38.4482 227.976 38.4457C230.088 38.4364 231.091 37.424 231.082 35.216L230.968 9.44027L236.248 9.41704L236.361 35.0488C236.385 40.5687 233.901 43.2197 228.717 43.2425Z" fill="#591F12"/>
<path d="M244.038 43.0038L249.892 9.46812L257.043 9.54939L262.133 43.2094L256.854 43.1494L255.969 36.4669L255.968 36.5629L249.969 36.4947L248.934 43.0594L244.038 43.0038ZM250.645 31.9421L255.396 31.9961L253.233 15.3625L253.137 15.3614L250.645 31.9421Z" fill="#591F12"/>
<path d="M283.356 43.7552L284.673 10.181L292.731 10.4972C298.007 10.7043 300.482 13.7316 300.271 19.1035L299.605 36.0824C299.394 41.4543 296.69 44.2784 291.414 44.0714L283.356 43.7552ZM288.82 39.1659L291.506 39.2713C293.185 39.3372 294.226 38.5134 294.32 36.1152L295.005 18.6567C295.099 16.2585 294.126 15.3556 292.447 15.2898L289.761 15.1844L288.82 39.1659Z" fill="#591F12"/>
<path d="M308.291 44.8208L310.199 11.275L324.576 12.0928L324.303 16.885L315.198 16.3671L314.693 25.2328L321.93 25.6444L321.657 30.4366L314.421 30.025L313.835 40.3284L322.94 40.8463L322.668 45.6386L308.291 44.8208Z" fill="#591F12"/>
<path d="M344.15 47.144L346.967 13.6623L355.003 14.3384C360.264 14.7811 362.602 17.9161 362.151 23.2732L360.726 40.2054C360.275 45.5624 357.447 48.2628 352.186 47.8201L344.15 47.144ZM349.814 42.8036L352.492 43.0289C354.167 43.1698 355.243 42.3934 355.445 40.0018L356.91 22.5913C357.111 20.1998 356.179 19.2543 354.505 19.1135L351.826 18.8881L349.814 42.8036Z" fill="#591F12"/>
<path d="M376.554 50.5743C371.398 50.0451 368.894 46.7 369.443 41.3521L371.246 23.7804C371.795 18.4325 374.926 15.6657 380.083 16.1949C385.24 16.7242 387.743 20.0693 387.194 25.4172L385.391 42.9889C384.842 48.3368 381.711 51.1036 376.554 50.5743ZM377.045 45.7994C378.716 45.9709 379.859 45.1715 380.104 42.7841L381.976 24.5439C382.221 22.1564 381.264 21.1414 379.593 20.9698C377.922 20.7983 376.778 21.5977 376.533 23.9852L374.661 42.2254C374.416 44.6129 375.373 45.6279 377.045 45.7994Z" fill="#591F12"/>
<path d="M401.158 53.3185C396.106 52.7082 393.806 49.336 394.428 44.1894L396.593 26.2717C397.215 21.1251 400.252 18.3977 405.303 19.008C410.354 19.6183 412.654 22.9905 412.033 28.1371L411.607 31.6634L406.651 31.0647L407.117 27.2047C407.382 25.0127 406.443 23.9806 404.87 23.7906C403.298 23.6006 402.14 24.3794 401.875 26.5714L399.624 45.2039C399.359 47.396 400.304 48.3804 401.876 48.5704C403.449 48.7604 404.601 48.0293 404.866 45.8372L405.482 40.7383L410.438 41.3371L409.868 46.0548C409.246 51.2013 406.209 53.9287 401.158 53.3185Z" fill="#591F12"/>
<path d="M417.605 54.9036L422.209 21.6206L436.473 23.5938L435.815 28.3485L426.782 27.0988L425.565 35.895L432.744 36.8882L432.087 41.643L424.907 40.6498L423.493 50.8724L432.527 52.1221L431.869 56.8768L417.605 54.9036Z" fill="#591F12"/>
<path d="M447.046 59.6534C441.924 58.8565 439.835 55.4226 440.661 50.1105L440.956 48.2133L445.889 48.9807L445.535 51.2573C445.166 53.6288 446.076 54.6448 447.737 54.903C449.397 55.1613 450.573 54.4699 450.956 52.0035C451.384 49.2526 450.614 47.3354 447.664 43.8161C443.898 39.2955 442.896 36.3707 443.486 32.5763C444.298 27.3591 447.473 24.7441 452.548 25.5336C457.623 26.3231 459.665 29.7496 458.838 35.0617L458.624 36.4372L453.692 35.6699L453.957 33.9624C454.326 31.5909 453.518 30.5422 451.858 30.284C450.198 30.0257 449.109 30.7793 448.755 33.0559C448.379 35.4748 449.196 37.3994 452.147 40.9187C455.912 45.4393 456.875 48.3093 456.233 52.4357C455.392 57.8427 452.169 60.4502 447.046 59.6534Z" fill="#591F12"/>
</svg>
